<?xml version="1.0" encoding="utf-8"?>
<svg viewBox="13.708 13.443 461.382 460.514" xmlns="http://www.w3.org/2000/svg">
  <g transform="matrix(0.681275, 0, 0, 0.681275, 13.705262, 13.313209)" style="">
    <rect x="381.094" y="-10.862" transform="matrix(0.707107, -0.707107, 0.707107, 0.707107, 9.274928, 361.094757)" fill="#FFFFFF" width="118.439" height="361.582" style=""/>
    <rect x="123.133" y="57.722" transform="matrix(0.7071 0.7071 -0.7071 0.7071 234.1518 -53.2964)" fill="#FFFFFF" width="116.555" height="396.55"/>
    <rect x="227.503" y="271.049" transform="matrix(0.7071 0.7071 -0.7071 0.7071 385.5618 -79.7276)" fill="#FFFFFF" width="123.037" height="309.007"/>
    <rect x="342.065" y="364.846" transform="matrix(0.707107, -0.707107, 0.707107, 0.707107, -163.615784, 402.458344)" fill="#FFFFFF" width="116.197" height="70.941"/>
    <path fill="#FFFFFF" d="M465.971,383.993c21.363,21.363,20.292,57.069-2.392,79.751c-22.683,22.688-58.391,23.755-79.755,2.393"/>
    <rect x="215.179" y="516.282" transform="matrix(0.707107, -0.707107, 0.707107, 0.707107, -303.707397, 356.383331)" fill="#FFFFFF" width="118.117" height="58.925"/>
    <path fill="#FFFFFF" d="M608.916,253.906L525.25,337.74c42.552,56.174,44.004,126.132-7.583,178.584 c-49.584,50.416-129.084,53.666-181.5,7.832l-83.522,83.521c94.227,94.226,250.587,90.665,348.602-7.352 C699.261,502.313,703.142,348.13,608.916,253.906z"/>
  </g>
</svg>